<svg width="40" height="40" viewBox="0 0 40 40" fill="none" xmlns="http://www.w3.org/2000/svg">
<path fill-rule="evenodd" clip-rule="evenodd" d="M21.1758 25.9238C21.1516 26.326 21.1189 26.7301 21.0761 27.1302C23.8668 26.23 25.9297 25.7043 29.3132 24.8477C30.2253 24.6957 32.9282 24.0731 33.7028 21.6459C34.1676 18.7022 34.3225 16.991 32.3601 14.0028C31.5392 12.8322 29.3691 11.0275 27.7639 10.0779C25.6687 8.83852 21.825 7.13432 18.8814 6.51461C15.5522 5.4809 12.3661 6.06096 11.3932 6.66902C9.05216 8.12839 7.3291 11.5024 6.79704 15.5004C5.81583 25.7256 10.4349 35.1122 15.1631 33.3687C16.545 32.9739 18.1022 31.6186 18.9195 29.0324C19.1473 28.1411 19.2972 27.0366 19.371 25.8148C19.4938 23.7822 19.3981 21.5997 19.2127 19.9335L19.2098 19.9071L19.2084 19.8805C19.1477 18.7136 18.7831 17.5252 18.2877 16.3224C17.982 15.5801 17.6594 14.9028 17.3375 14.227C17.1171 13.7643 16.897 13.3023 16.6829 12.8206L16.6819 12.8183C16.5446 12.5071 16.5122 12.1379 16.55 11.8025C16.5896 11.4509 16.7153 11.0519 16.9826 10.6931C17.5705 9.90382 18.6061 9.58599 19.9625 9.86345L20.0231 9.87584L20.0814 9.89636C21.3115 10.3292 23.5682 11.1357 25.569 12.2406C26.5687 12.7926 27.544 13.4403 28.3038 14.1824C29.057 14.918 29.6759 15.823 29.7962 16.8895L29.7965 16.8922C29.8948 17.7881 29.613 18.6243 28.8797 19.2487C28.2013 19.8264 27.2135 20.1573 26.0081 20.3191C24.2382 20.5567 22.3517 20.649 21.1027 20.6992C21.233 22.2828 21.283 24.1499 21.1758 25.9238ZM18.9273 13.3583L18.9273 13.3584L18.9273 13.3584L18.9274 13.3584L18.9274 13.3584C19.2727 14.0861 19.6467 14.874 19.9596 15.6338C20.3798 16.6541 20.7506 17.7533 20.923 18.8967C22.1606 18.8476 24.0247 18.761 25.7676 18.5271C26.8273 18.3848 27.4128 18.1229 27.7074 17.8721C27.9467 17.6683 28.0374 17.4406 27.9993 17.0907C27.9443 16.607 27.644 16.0653 27.0405 15.4759C26.443 14.8923 25.6228 14.3358 24.6949 13.8234C22.871 12.8162 20.7835 12.0608 19.5426 11.6236C19.11 11.5419 18.8409 11.5706 18.6869 11.6151C18.5378 11.6583 18.4702 11.7228 18.4326 11.7733C18.3874 11.8339 18.3568 11.9158 18.3468 12.0049C18.3402 12.0634 18.3449 12.099 18.3463 12.11L18.3463 12.11L18.3465 12.1116C18.5157 12.4911 18.7162 12.9134 18.9273 13.3583ZM11.6206 20.6218C11.7997 20.0318 12.1109 19.8777 12.3921 19.8275C12.7588 19.7622 13.1609 19.8758 13.3362 19.9742C13.473 20.0511 13.9886 20.4522 14.4324 21.1892C14.8475 21.8784 15.0755 22.6881 15.256 23.8813C15.2565 24.5067 15.239 25.3749 15.164 26.1728C15.1252 26.5862 15.0725 26.9626 15.0042 27.2681C14.9307 27.5973 14.8581 27.7541 14.8278 27.7979L14.7724 27.878L14.7361 27.9682C14.5738 28.3711 14.4172 28.552 14.3068 28.6372C14.2212 28.7034 14.117 28.7485 13.9527 28.7634C13.941 28.7594 13.9268 28.7542 13.91 28.7477C13.8218 28.7132 13.6989 28.6544 13.56 28.5703C13.2755 28.3981 12.9891 28.1595 12.8004 27.8886L12.8005 27.8886L12.7936 27.879C12.3507 27.261 11.7111 25.7701 11.5271 24.2957C11.3469 22.8523 11.2736 21.7645 11.6206 20.6218ZM14.1907 18.4526C13.7162 18.1861 12.9069 17.9631 12.0859 18.1094C11.1794 18.271 10.3265 18.8768 9.95066 20.1148C9.48757 21.64 9.6131 23.0518 9.79536 24.5119C10.0109 26.2384 10.7415 28.0087 11.3717 28.8908C11.7397 29.4172 12.234 29.8077 12.6562 30.0633C12.8713 30.1935 13.0838 30.2985 13.2748 30.3731C13.4261 30.4322 13.6812 30.5207 13.9375 30.5121C14.4283 30.4956 14.9266 30.3636 15.3735 30.0184C15.7879 29.6984 16.0914 29.2464 16.3222 28.6996C16.5151 28.3829 16.6301 27.995 16.7075 27.6485C16.7977 27.2443 16.859 26.7884 16.9016 26.3362C16.9867 25.4301 17.0029 24.4662 17.0011 23.8132L17.0009 23.75L16.9917 23.6876C16.7982 22.3825 16.5276 21.2855 15.9275 20.2889C15.3489 19.3282 14.6251 18.6965 14.1907 18.4526Z" fill="#8B2D0D"/>
</svg>
