<svg width="24" height="24" viewBox="0 0 24 24" fill="none" xmlns="http://www.w3.org/2000/svg">
<circle cx="12" cy="12" r="11" fill="#B026CF"/>
<path d="M14.8126 5.83752C14.8126 6.74091 13.5534 7.47326 12.0001 7.47326C10.4468 7.47326 9.18762 6.74091 9.18762 5.83752C9.18762 4.93413 10.4468 4.20179 12.0001 4.20179C13.5534 4.20179 14.8126 4.93413 14.8126 5.83752Z" fill="white"/>
<path d="M14.8126 18.1625C14.8126 19.0659 13.5534 19.7982 12.0001 19.7982C10.4468 19.7982 9.18762 19.0659 9.18762 18.1625C9.18762 17.2591 10.4468 16.5267 12.0001 16.5267C13.5534 16.5267 14.8126 17.2591 14.8126 18.1625Z" fill="white"/>
<path d="M8.08071 9.7375C8.85736 8.39235 8.85232 6.93547 8.06945 6.48347C7.28659 6.03146 6.02235 6.75551 5.24571 8.10066C4.46906 9.44581 4.4741 10.9027 5.25697 11.3547C6.03983 11.8067 7.30407 11.0827 8.08071 9.7375Z" fill="white"/>
<path d="M18.743 12.6458C19.5253 13.0975 19.5299 14.5541 18.7533 15.8992C17.9766 17.2444 16.7128 17.9687 15.9305 17.517C15.1482 17.0653 15.1436 15.6087 15.9202 14.2635C16.6968 12.9184 17.9607 12.1941 18.743 12.6458Z" fill="white"/>
<path d="M8.06985 17.5166C8.85271 17.0646 8.85775 15.6077 8.0811 14.2626C7.30446 12.9174 6.04022 12.1934 5.25736 12.6454C4.47449 13.0974 4.46945 14.5543 5.2461 15.8994C6.02275 17.2446 7.28698 17.9686 8.06985 17.5166Z" fill="white"/>
<path d="M18.754 8.10157C19.5306 9.44672 19.526 10.9034 18.7436 11.3551C17.9613 11.8067 16.6975 11.0825 15.9209 9.7373C15.1442 8.39215 15.1488 6.93552 15.9312 6.48382C16.7135 6.03213 17.9773 6.75642 18.754 8.10157Z" fill="white"/>
<path d="M11.0866 10.2112C10.686 10.78 10.3002 11.3142 10.2359 11.3982C10.1716 11.4873 10.1271 11.5615 10.1419 11.5615C10.2062 11.5615 11.2795 10.1024 11.6801 9.46928C12.0214 8.93017 11.8186 9.19231 11.0866 10.2112Z" fill="white"/>
<path d="M12.3823 9.29617C12.6494 9.74626 14.0046 11.6109 14.0689 11.6109C14.0838 11.6109 14.0392 11.5367 13.9749 11.4477C13.9106 11.3636 13.5249 10.8294 13.1242 10.2606C12.7186 9.6968 12.3823 9.23682 12.3675 9.23682C12.3576 9.23682 12.3625 9.2665 12.3823 9.29617Z" fill="white"/>
<path d="M12.3033 9.99851C12.5803 10.414 13.1639 11.0668 13.8168 11.7098C14.6279 12.5012 14.5389 12.3874 13.2727 10.9927C12.0362 9.6325 12.1005 9.6968 12.3033 9.99851Z" fill="white"/>
<path d="M10.9878 10.9036C9.60291 12.427 9.57324 12.4616 10.053 12.0066C10.5723 11.512 11.2648 10.7849 11.517 10.4733C11.7891 10.1321 11.9721 9.87981 11.9473 9.87981C11.9325 9.87981 11.5022 10.3398 10.9878 10.9036Z" fill="white"/>
<path d="M10.6811 11.7593C9.93924 12.3874 9.34572 12.8969 9.36551 12.8969C9.4298 12.8969 10.147 12.4913 10.513 12.244C11.1411 11.8186 11.7 11.2696 11.9523 10.8196C12.0116 10.7107 12.0561 10.6217 12.0463 10.6217C12.0364 10.6267 11.4231 11.1361 10.6811 11.7593Z" fill="white"/>
<path d="M12.2094 10.8097C12.3776 11.1163 12.9414 11.7098 13.3569 12.0214C13.6932 12.2737 14.539 12.7881 14.7517 12.8672C14.8753 12.9117 14.9742 13.0008 13.5151 11.7791C11.9176 10.4437 12.066 10.5525 12.2094 10.8097Z" fill="white"/>
<path d="M10.5968 12.3924C9.81042 12.8721 9.20206 13.2728 9.24657 13.2827C9.38012 13.3074 10.2852 12.9909 10.7205 12.7683C11.2596 12.4913 11.6454 12.1797 11.8828 11.8335C11.9867 11.6851 12.0609 11.5516 12.051 11.5367C12.0361 11.5268 11.3833 11.9077 10.5968 12.3924Z" fill="white"/>
<path d="M12.1797 11.6604C12.4072 12.1006 13.1046 12.6496 13.8069 12.9414C14.1877 13.0997 15.1275 13.3717 15.0434 13.2975C14.9939 13.253 12.2093 11.5466 12.1401 11.5169C12.1154 11.5071 12.1351 11.5713 12.1797 11.6604Z" fill="white"/>
<path d="M10.0232 11.695C9.9589 11.7741 9.96385 11.7791 10.043 11.7148C10.0875 11.6802 10.1271 11.6406 10.1271 11.6307C10.1271 11.5911 10.0875 11.6159 10.0232 11.695Z" fill="white"/>
<path d="M14.0838 11.6802C14.0838 11.69 14.1234 11.7296 14.1729 11.7642C14.247 11.8285 14.252 11.8236 14.1877 11.7445C14.1234 11.6653 14.0838 11.6406 14.0838 11.6802Z" fill="white"/>
<path d="M10.4339 13.0552C9.58317 13.4113 8.90061 13.713 8.91051 13.7278C8.92534 13.7377 9.19738 13.7229 9.51887 13.6932C10.7554 13.5695 11.4973 13.2579 11.9127 12.6793C12.0562 12.4864 12.0908 12.4023 12.0216 12.4023C11.9968 12.4072 11.2846 12.699 10.4339 13.0552Z" fill="white"/>
<path d="M12.2094 12.6001C12.5358 13.1838 13.3668 13.5597 14.6231 13.6932C14.9149 13.7229 15.1918 13.7377 15.2364 13.7328C15.2908 13.7179 12.7287 12.615 12.1847 12.4171C12.0956 12.3874 12.1006 12.4023 12.2094 12.6001Z" fill="white"/>
</svg>
