<svg width="24" height="24" viewBox="0 0 24 24" fill="none" xmlns="http://www.w3.org/2000/svg">
<path d="M11.9454 7.82377C13.39 7.82377 14.5611 7.14265 14.5611 6.30253C14.5611 5.46234 13.39 4.78125 11.9454 4.78125C10.5008 4.78125 9.32977 5.46234 9.32977 6.30253C9.32977 7.14265 10.5008 7.82377 11.9454 7.82377Z" fill="#E6007A"/>
<path d="M11.9454 19.2862C13.39 19.2862 14.5611 18.6051 14.5611 17.7649C14.5611 16.9247 13.39 16.2437 11.9454 16.2437C10.5008 16.2437 9.32977 16.9247 9.32977 17.7649C9.32977 18.6051 10.5008 19.2862 11.9454 19.2862Z" fill="#E6007A"/>
<path d="M8.28978 6.90329C9.01787 7.32366 9.02254 8.67858 8.30028 9.92956C7.57797 11.1806 6.40221 11.854 5.67414 11.4336C4.94606 11.0132 4.94138 9.6583 5.66367 8.40727C6.38596 7.15629 7.56169 6.48293 8.28978 6.90329Z" fill="#E6007A"/>
<path d="M18.535 15.0086C18.9253 13.9694 18.8185 12.9819 18.2165 12.6343C17.4889 12.2142 16.3135 12.8878 15.5912 14.1388C14.8691 15.3895 14.8732 16.7439 15.6003 17.1643C16.1607 16.0343 17.2447 15.2099 18.535 15.0086Z" fill="#E6007A"/>
<path d="M8.30072 14.1379C9.02304 15.3889 9.01836 16.7438 8.29027 17.1642C7.56218 17.5846 6.38643 16.9112 5.66414 15.6602C4.94185 14.4091 4.94653 13.0542 5.67461 12.6339C6.40268 12.2135 7.57846 12.8869 8.30072 14.1379Z" fill="#E6007A"/>
<path d="M18.2171 11.4339C18.9447 11.0138 18.9489 9.65912 18.2267 8.40809C17.5044 7.15712 16.329 6.48348 15.6014 6.90357C14.8739 7.32366 14.8696 8.67836 15.5919 9.92934C16.3142 11.1804 17.4895 11.854 18.2171 11.4339Z" fill="#E6007A"/>
<path d="M2.375 12C2.375 6.68426 6.68426 2.375 12 2.375C17.3157 2.375 21.625 6.68426 21.625 12C21.625 13.204 21.4039 14.3564 21.0001 15.4188C21.4274 15.6449 21.8083 15.947 22.1249 16.3069C22.6882 14.9842 23 13.5285 23 12C23 5.92487 18.0751 1 12 1C5.92487 1 1 5.92487 1 12C1 18.0751 5.92487 23 12 23C13.6556 23 15.2258 22.6342 16.6342 21.9791C16.2638 21.674 15.9498 21.3029 15.7102 20.8839C14.5684 21.3613 13.315 21.625 12 21.625C6.68426 21.625 2.375 17.3157 2.375 12Z" fill="url(#paint0_linear_662_12134)"/>
<path fill-rule="evenodd" clip-rule="evenodd" d="M19.1503 15.8408C17.4493 15.8408 16.0703 17.2198 16.0703 18.9208C16.0703 20.6219 17.4493 22.0008 19.1503 22.0008C20.8514 22.0008 22.2303 20.6219 22.2303 18.9208C22.2303 17.2198 20.8514 15.8408 19.1503 15.8408ZM17.5729 18.3144L19.0041 20.4612C19.0738 20.5657 19.2273 20.5657 19.297 20.4612L20.7281 18.3144C20.8061 18.1975 20.7223 18.0408 20.5817 18.0408H19.9453C19.8884 18.0408 19.8349 18.0684 19.8019 18.1148L19.294 18.8291C19.2238 18.9278 19.0773 18.9278 19.0071 18.8291L18.4992 18.1148C18.4661 18.0684 18.4127 18.0408 18.3557 18.0408H17.7194C17.5788 18.0408 17.495 18.1975 17.5729 18.3144Z" fill="url(#paint1_linear_662_12134)"/>
<defs>
<linearGradient id="paint0_linear_662_12134" x1="12.0001" y1="0.999999" x2="12.0001" y2="23" gradientUnits="userSpaceOnUse">
<stop stop-color="#7AEDCF"/>
<stop offset="0.201333" stop-color="#68CEFA"/>
<stop offset="0.403244" stop-color="#689CF8"/>
<stop offset="0.602076" stop-color="#AC57C0"/>
<stop offset="0.801867" stop-color="#E65659"/>
<stop offset="1" stop-color="#F2C241"/>
</linearGradient>
<linearGradient id="paint1_linear_662_12134" x1="19.1503" y1="15.4008" x2="19.1503" y2="22.4408" gradientUnits="userSpaceOnUse">
<stop stop-color="#7AEDCF"/>
<stop offset="0.201333" stop-color="#68CEFA"/>
<stop offset="0.403244" stop-color="#689CF8"/>
<stop offset="0.602076" stop-color="#AC57C0"/>
<stop offset="0.801867" stop-color="#E65659"/>
<stop offset="1" stop-color="#F2C241"/>
</linearGradient>
</defs>
</svg>
