<svg width="38" height="38" viewBox="0 0 38 38" fill="none" xmlns="http://www.w3.org/2000/svg">
<g filter="url(#filter0_d_7757_10520)">
<g clip-path="url(#clip0_7757_10520)">
<circle cx="19" cy="19.0921" r="15" fill="white"/>
<g clip-path="url(#clip1_7757_10520)">
<path d="M14.8388 17.2902L19.0002 13.1289L23.1638 17.2923L25.5852 14.8709L19.0002 8.28571L12.4175 14.8688L14.8388 17.2902ZM8.28613 18.9997L10.7076 16.5782L13.129 18.9995L10.7075 21.421L8.28613 18.9997ZM14.8388 20.7098L19.0002 24.8711L23.1637 20.7077L25.5864 23.1279L25.5852 23.1292L19.0002 29.7143L12.4173 23.1314L12.4139 23.128L14.8388 20.7098ZM24.8719 19.001L27.2934 16.5795L29.7148 19.0008L27.2933 21.4223L24.8719 19.001Z" fill="#F3BA2F"/>
<path d="M21.4563 18.9987H21.4574L19.0003 16.5416L17.1844 18.3575H17.1843L16.9757 18.5662L16.5454 18.9966L16.542 18.9999L16.5454 19.0034L19.0003 21.4584L21.4574 19.0013L21.4586 18.9999L21.4563 18.9987Z" fill="#F3BA2F"/>
</g>
</g>
</g>
<defs>
<filter id="filter0_d_7757_10520" x="0" y="0" width="38" height="38" filterUnits="userSpaceOnUse" color-interpolation-filters="sRGB">
<feFlood flood-opacity="0" result="BackgroundImageFix"/>
<feColorMatrix in="SourceAlpha" type="matrix" values="0 0 0 0 0 0 0 0 0 0 0 0 0 0 0 0 0 0 127 0" result="hardAlpha"/>
<feOffset/>
<feGaussianBlur stdDeviation="2"/>
<feComposite in2="hardAlpha" operator="out"/>
<feColorMatrix type="matrix" values="0 0 0 0 0 0 0 0 0 0 0 0 0 0 0 0 0 0 0.1 0"/>
<feBlend mode="normal" in2="BackgroundImageFix" result="effect1_dropShadow_7757_10520"/>
<feBlend mode="normal" in="SourceGraphic" in2="effect1_dropShadow_7757_10520" result="shape"/>
</filter>
<clipPath id="clip0_7757_10520">
<path d="M4 19C4 10.7157 10.7157 4 19 4C27.2843 4 34 10.7157 34 19C34 27.2843 27.2843 34 19 34C10.7157 34 4 27.2843 4 19Z" fill="white"/>
</clipPath>
<clipPath id="clip1_7757_10520">
<rect width="21.4286" height="21.4286" fill="white" transform="translate(8.28613 8.28571)"/>
</clipPath>
</defs>
</svg>
