<svg width="30" height="30" viewBox="0 0 30 30" fill="none" xmlns="http://www.w3.org/2000/svg">
<path d="M15 0C6.75 0 0 6.75 0 15C0 23.25 6.75 30 15 30C23.25 30 30 23.25 30 15C30 6.75 23.25 0 15 0Z" fill="#01943F"/>
<path d="M11.2945 10.3054C11.3047 10.2993 11.3155 10.2943 11.3268 10.2907C11.4475 10.2346 11.5684 10.1817 11.6891 10.1346V7.7519C11.6894 7.54377 11.607 7.34403 11.4601 7.19658C11.3132 7.04913 11.1138 6.96604 10.9057 6.96558H7.65723V13.8042C8.45053 12.2686 9.72933 11.0385 11.2945 10.3054Z" fill="white"/>
<path d="M14.602 14.4698H15.3264C15.5763 14.47 15.8238 14.4208 16.0546 14.3252C16.2855 14.2297 16.4953 14.0895 16.672 13.9128C16.8487 13.7362 16.9888 13.5264 17.0844 13.2955C17.18 13.0646 17.2291 12.8172 17.229 12.5673V10.5293C16.8372 10.4616 15.0466 10.4238 14.6314 10.4238C12.8612 10.4227 11.1564 11.0934 9.86145 12.3004C8.56647 13.5073 7.7777 15.1607 7.65441 16.9267C7.6427 17.0886 7.63672 17.2506 7.63672 17.4156C7.63672 17.5806 7.64258 17.7425 7.65441 17.9045V22.251C7.65437 22.3539 7.6746 22.4558 7.71395 22.5508C7.75331 22.6459 7.81101 22.7323 7.88376 22.805C7.95652 22.8778 8.0429 22.9355 8.13796 22.9748C8.23303 23.0142 8.33492 23.0344 8.43781 23.0344H11.6862V17.3772C11.6879 16.6052 11.9959 15.8654 12.5426 15.3203C13.0893 14.7753 13.83 14.4696 14.602 14.4703V14.4698Z" fill="white"/>
<path d="M18.71 19.6944C18.6998 19.7005 18.689 19.7055 18.6777 19.7092C18.557 19.7651 18.4361 19.8182 18.3154 19.8653V22.2479C18.3151 22.4561 18.3975 22.6558 18.5444 22.8033C18.6913 22.9507 18.8907 23.0338 19.0988 23.0343H22.3449V16.1956C21.5518 17.7304 20.274 18.9604 18.71 19.6944Z" fill="white"/>
<path d="M22.3452 12.096V7.74897C22.3452 7.64608 22.325 7.54419 22.2857 7.44913C22.2463 7.35406 22.1886 7.26768 22.1158 7.19492C22.0431 7.12217 21.9567 7.06447 21.8616 7.02512C21.7666 6.98576 21.6647 6.96553 21.5618 6.96558H18.3134V12.6234C18.3118 13.3948 18.0042 14.1341 17.4581 14.679C16.912 15.2239 16.172 15.5298 15.4005 15.5296H14.673C14.4231 15.5295 14.1756 15.5787 13.9447 15.6743C13.7138 15.7699 13.504 15.9101 13.3273 16.0868C13.1506 16.2635 13.0105 16.4734 12.915 16.7043C12.8194 16.9352 12.7703 17.1827 12.7705 17.4326V19.4707C13.1623 19.5384 14.9529 19.5761 15.3681 19.5761C15.415 19.5761 15.4594 19.5761 15.5065 19.5732C16.4803 19.5566 17.4397 19.3348 18.322 18.9223L18.3397 18.9135C19.4684 18.3859 20.4354 17.5657 21.1401 16.5382C21.8449 15.5107 22.2618 14.3134 22.3475 13.0703C22.3593 12.9084 22.3652 12.7463 22.3652 12.5814C22.3629 12.42 22.3569 12.258 22.3452 12.096Z" fill="white"/>
</svg>
