<svg width="38" height="38" viewBox="0 0 38 38" fill="none" xmlns="http://www.w3.org/2000/svg">
<g filter="url(#filter0_d_7757_18908)">
<g clip-path="url(#clip0_7757_18908)">
<circle cx="19" cy="19.092" r="15" fill="white"/>
<path d="M19.4164 9.05212L19.29 9.48142V21.9373L19.4164 22.0634L25.1982 18.6458L19.4164 9.05212Z" fill="#343434"/>
<path d="M19.4245 9.05212L13.6426 18.6458L19.4245 22.0634V16.0177V9.05212Z" fill="#8C8C8C"/>
<path d="M19.4169 23.1747L19.3457 23.2615V27.6985L19.4169 27.9065L25.2023 19.7588L19.4169 23.1747Z" fill="#3C3C3B"/>
<path d="M19.4245 27.9065V23.1747L13.6426 19.7588L19.4245 27.9065Z" fill="#8C8C8C"/>
<path d="M19.4189 22.0517L25.2007 18.6341L19.4189 16.006V22.0517Z" fill="#141414"/>
<path d="M13.6426 18.6341L19.4245 22.0517V16.006L13.6426 18.6341Z" fill="#393939"/>
</g>
</g>
<defs>
<filter id="filter0_d_7757_18908" x="0" y="0" width="38" height="38" filterUnits="userSpaceOnUse" color-interpolation-filters="sRGB">
<feFlood flood-opacity="0" result="BackgroundImageFix"/>
<feColorMatrix in="SourceAlpha" type="matrix" values="0 0 0 0 0 0 0 0 0 0 0 0 0 0 0 0 0 0 127 0" result="hardAlpha"/>
<feOffset/>
<feGaussianBlur stdDeviation="2"/>
<feComposite in2="hardAlpha" operator="out"/>
<feColorMatrix type="matrix" values="0 0 0 0 0 0 0 0 0 0 0 0 0 0 0 0 0 0 0.1 0"/>
<feBlend mode="normal" in2="BackgroundImageFix" result="effect1_dropShadow_7757_18908"/>
<feBlend mode="normal" in="SourceGraphic" in2="effect1_dropShadow_7757_18908" result="shape"/>
</filter>
<clipPath id="clip0_7757_18908">
<path d="M4 19C4 10.7157 10.7157 4 19 4C27.2843 4 34 10.7157 34 19C34 27.2843 27.2843 34 19 34C10.7157 34 4 27.2843 4 19Z" fill="white"/>
</clipPath>
</defs>
</svg>
