<svg width="24" height="24" viewBox="0 0 24 24" fill="none" xmlns="http://www.w3.org/2000/svg">
<path d="M15.6065 4.09757C15.6065 5.25603 13.9918 6.19515 11.9999 6.19515C10.008 6.19515 8.39333 5.25603 8.39333 4.09757C8.39333 2.93912 10.008 2 11.9999 2C13.9918 2 15.6065 2.93912 15.6065 4.09757Z" fill="#E6007A"/>
<path d="M15.6065 19.9024C15.6065 21.0609 13.9918 22 11.9999 22C10.008 22 8.39333 21.0609 8.39333 19.9024C8.39333 18.744 10.008 17.8049 11.9999 17.8049C13.9918 17.8049 15.6065 18.744 15.6065 19.9024Z" fill="#E6007A"/>
<path d="M6.9739 9.09869C7.96983 7.37374 7.96336 5.50552 6.95946 4.9259C5.95556 4.34627 4.33437 5.27475 3.33844 6.9997C2.34251 8.72465 2.34897 10.5929 3.35288 11.1725C4.35678 11.7521 5.97797 10.8236 6.9739 9.09869Z" fill="#E6007A"/>
<path d="M20.6466 12.8281C21.6498 13.4073 21.6558 15.2752 20.6598 17.0002C19.6639 18.7251 18.0433 19.6539 17.04 19.0747C16.0368 18.4955 16.0309 16.6276 17.0268 14.9026C18.0228 13.1776 19.6434 12.2489 20.6466 12.8281Z" fill="#E6007A"/>
<path d="M6.95996 19.0742C7.96386 18.4946 7.97033 16.6264 6.9744 14.9014C5.97847 13.1765 4.35728 12.248 3.35338 12.8276C2.34948 13.4072 2.34301 15.2754 3.33894 17.0004C4.33487 18.7253 5.95606 19.6538 6.95996 19.0742Z" fill="#E6007A"/>
<path d="M20.6607 7.00087C21.6566 8.72582 21.6507 10.5937 20.6475 11.173C19.6442 11.7522 18.0236 10.8234 17.0277 9.09844C16.0317 7.37349 16.0377 5.50558 17.0409 4.92635C18.0441 4.34713 19.6647 5.27592 20.6607 7.00087Z" fill="#E6007A"/>
<circle cx="18" cy="18" r="4" fill="#FFC8E5"/>
<path d="M18.1158 20.0467C17.7638 20.0467 17.4544 19.9907 17.1878 19.8787C16.9211 19.7614 16.7078 19.6014 16.5478 19.3987C16.3878 19.1961 16.2918 18.9614 16.2598 18.6947H17.2918C17.3238 18.8494 17.4091 18.9827 17.5478 19.0947C17.6918 19.2014 17.8758 19.2547 18.0998 19.2547C18.3238 19.2547 18.4865 19.2094 18.5878 19.1187C18.6944 19.0281 18.7478 18.9241 18.7478 18.8067C18.7478 18.6361 18.6731 18.5214 18.5238 18.4627C18.3745 18.3987 18.1664 18.3374 17.8998 18.2787C17.7291 18.2414 17.5558 18.1961 17.3798 18.1427C17.2038 18.0894 17.0411 18.0227 16.8918 17.9427C16.7478 17.8574 16.6304 17.7507 16.5398 17.6227C16.4491 17.4894 16.4038 17.3267 16.4038 17.1347C16.4038 16.7827 16.5425 16.4867 16.8198 16.2467C17.1024 16.0067 17.4971 15.8867 18.0038 15.8867C18.4731 15.8867 18.8465 15.9961 19.1238 16.2147C19.4064 16.4334 19.5745 16.7347 19.6278 17.1187H18.6598C18.6011 16.8254 18.3798 16.6787 17.9958 16.6787C17.8038 16.6787 17.6544 16.7161 17.5478 16.7907C17.4465 16.8654 17.3958 16.9587 17.3958 17.0707C17.3958 17.1881 17.4731 17.2814 17.6278 17.3507C17.7824 17.4201 17.9878 17.4841 18.2438 17.5427C18.5211 17.6067 18.7745 17.6787 19.0038 17.7587C19.2384 17.8334 19.4251 17.9481 19.5638 18.1027C19.7024 18.2521 19.7718 18.4681 19.7718 18.7507C19.7771 18.9961 19.7131 19.2174 19.5798 19.4147C19.4465 19.6121 19.2544 19.7667 19.0038 19.8787C18.7531 19.9907 18.4571 20.0467 18.1158 20.0467Z" fill="#E6007A"/>
</svg>
